<svg xmlns="http://www.w3.org/2000/svg" xmlns:xlink="http://www.w3.org/1999/xlink" width="500" zoomAndPan="magnify" viewBox="0 0 375 374.999991" height="500" preserveAspectRatio="xMidYMid meet" version="1.0"><path fill="#ffffff" d="M 132.027344 77.507812 C 138.40625 74.734375 145.339844 71.683594 150.332031 71.683594 C 155.601562 71.960938 160.59375 73.625 164.480469 76.953125 C 165.589844 77.785156 166.421875 78.617188 167.53125 79.726562 C 170.027344 82.222656 172.800781 84.996094 176.40625 86.382812 C 179.179688 87.492188 181.953125 88.042969 185.003906 88.042969 C 188.332031 88.042969 191.660156 87.214844 194.433594 85.550781 C 197.484375 83.886719 199.980469 81.667969 202.199219 79.449219 C 203.308594 78.617188 204.140625 77.507812 205.25 76.675781 C 209.132812 73.347656 214.128906 71.683594 219.398438 71.40625 C 224.390625 71.128906 231.046875 74.179688 237.703125 77.230469 C 251.292969 83.332031 269.601562 91.371094 281.25 71.683594 C 282.914062 68.910156 281.804688 65.585938 279.308594 64.199219 C 276.8125 62.535156 273.207031 63.644531 271.820312 66.140625 C 265.996094 76.121094 258.230469 74.179688 242.417969 66.972656 C 234.652344 63.644531 226.886719 60.039062 219.398438 60.316406 C 211.632812 60.59375 204.417969 63.367188 198.59375 68.078125 C 197.484375 69.1875 196.097656 70.296875 194.988281 71.128906 C 193.601562 72.515625 192.214844 73.902344 190.828125 74.734375 C 190.550781 64.199219 192.769531 42.847656 215.515625 31.753906 C 218.289062 30.367188 219.398438 27.042969 218.011719 24.269531 C 216.625 21.496094 213.296875 20.386719 210.519531 21.773438 C 182.230469 35.914062 179.179688 62.257812 179.457031 75.566406 C 178.070312 74.734375 176.683594 73.347656 175.296875 71.960938 C 174.1875 70.851562 172.800781 69.742188 171.691406 68.632812 C 165.867188 63.921875 158.652344 61.148438 150.886719 60.871094 C 143.398438 60.59375 135.355469 64.199219 127.867188 67.527344 C 112.054688 74.734375 104.289062 76.675781 98.464844 66.695312 C 96.800781 63.921875 93.472656 63.089844 90.976562 64.753906 C 88.203125 66.417969 87.371094 69.742188 89.035156 72.238281 C 100.128906 91.648438 118.714844 83.332031 132.027344 77.507812 Z M 132.027344 77.507812 " fill-opacity="1" fill-rule="nonzero"/><path fill="#ffffff" d="M 332.007812 122.429688 C 305.105469 92.757812 264.332031 81.667969 219.953125 92.203125 C 217.179688 92.757812 215.515625 95.53125 215.792969 98.304688 C 216.070312 101.078125 218.566406 103.296875 221.339844 103.296875 C 221.339844 103.296875 265.441406 103.296875 277.644531 147.9375 C 264.054688 133.796875 239.921875 116.605469 200.8125 114.664062 C 198.871094 114.664062 197.207031 115.496094 196.097656 116.882812 C 194.988281 118.269531 194.710938 120.210938 195.265625 121.875 C 195.265625 122.152344 204.972656 152.375 189.996094 180.9375 C 188.054688 165.410156 183.339844 141.007812 171.414062 119.378906 C 170.582031 117.714844 168.640625 116.605469 166.699219 116.605469 C 164.757812 116.605469 124.539062 116.605469 98.1875 150.433594 C 101.238281 134.628906 112.332031 113.277344 146.726562 103.296875 C 149.222656 102.464844 150.886719 100.246094 150.609375 97.75 C 150.609375 95.253906 148.667969 93.035156 146.171875 92.480469 C 145.0625 92.203125 35.503906 68.910156 11.371094 164.300781 C 0 208.941406 14.144531 262.183594 46.320312 296.289062 C 81.546875 333.445312 132.582031 354.519531 186.667969 354.519531 C 188.054688 354.519531 189.441406 354.519531 190.828125 354.519531 C 243.804688 353.410156 292.898438 331.503906 325.351562 294.347656 C 372.226562 240.554688 375 169.84375 332.007812 122.429688 Z M 317.03125 287.136719 C 286.796875 322.078125 240.753906 342.597656 190.828125 343.429688 C 138.128906 344.539062 88.480469 324.574219 54.363281 288.523438 C 24.6875 257.191406 11.648438 208.109375 22.1875 166.519531 C 36.613281 109.671875 84.042969 99.96875 115.382812 99.96875 C 118.160156 99.96875 120.933594 99.96875 123.429688 100.246094 C 78.496094 124.648438 86.539062 170.953125 86.539062 171.507812 C 87.09375 174.003906 89.035156 175.667969 91.253906 175.945312 C 93.75 176.222656 95.96875 174.835938 97.078125 172.894531 C 115.382812 133.796875 152.273438 128.25 163.367188 127.421875 C 179.457031 159.03125 180.289062 196.464844 180.289062 197.019531 C 180.289062 199.238281 181.675781 201.457031 183.894531 202.289062 C 186.113281 203.121094 188.609375 202.566406 189.996094 200.625 C 213.296875 173.171875 210.796875 140.730469 207.746094 126.3125 C 261.003906 131.855469 280.695312 169.566406 281.527344 171.230469 C 282.636719 173.449219 285.410156 174.835938 287.90625 174.003906 C 290.402344 173.449219 292.066406 170.953125 292.066406 168.457031 C 290.125 127.144531 269.878906 108.007812 251.570312 99.414062 C 251.847656 99.414062 251.847656 99.414062 252.125 99.414062 C 280.417969 99.414062 305.660156 109.949219 323.964844 129.914062 C 369.453125 180.105469 352.257812 246.65625 317.03125 287.136719 Z M 317.03125 287.136719 " fill-opacity="1" fill-rule="nonzero"/><path fill="#ffffff" d="M 191.660156 96.085938 C 189.996094 98.304688 187.5 99.414062 185.003906 99.414062 C 182.507812 99.414062 180.011719 98.304688 178.347656 96.085938 C 176.40625 93.589844 173.078125 93.3125 170.582031 94.976562 C 168.085938 96.917969 167.808594 100.246094 169.472656 102.742188 C 173.078125 107.730469 178.902344 110.503906 185.003906 110.503906 C 191.105469 110.503906 196.652344 107.730469 200.535156 102.742188 C 202.476562 100.246094 201.921875 96.917969 199.425781 94.976562 C 196.929688 93.035156 193.324219 93.589844 191.660156 96.085938 Z M 191.660156 96.085938 " fill-opacity="1" fill-rule="nonzero"/><path fill="#ffffff" d="M 303.992188 199.238281 C 300.941406 199.238281 298.445312 201.734375 298.445312 204.785156 C 298.445312 205.0625 298.445312 233.34375 272.652344 256.082031 C 270.433594 258.023438 270.15625 261.628906 272.097656 263.847656 C 274.039062 266.066406 277.644531 266.34375 279.863281 264.402344 C 309.542969 238.335938 309.542969 206.171875 309.542969 204.785156 C 309.542969 201.734375 307.324219 199.238281 303.992188 199.238281 Z M 303.992188 199.238281 " fill-opacity="1" fill-rule="nonzero"/><path fill="#ffffff" d="M 265.441406 274.105469 C 265.441406 274.46875 265.40625 274.832031 265.332031 275.1875 C 265.261719 275.546875 265.15625 275.890625 265.019531 276.226562 C 264.878906 276.566406 264.707031 276.882812 264.503906 277.1875 C 264.304688 277.488281 264.074219 277.769531 263.816406 278.027344 C 263.558594 278.285156 263.277344 278.515625 262.976562 278.71875 C 262.671875 278.917969 262.351562 279.089844 262.015625 279.230469 C 261.679688 279.367188 261.332031 279.472656 260.976562 279.546875 C 260.617188 279.617188 260.257812 279.652344 259.894531 279.652344 C 259.527344 279.652344 259.167969 279.617188 258.808594 279.546875 C 258.453125 279.472656 258.105469 279.367188 257.769531 279.230469 C 257.433594 279.089844 257.113281 278.917969 256.8125 278.71875 C 256.507812 278.515625 256.226562 278.285156 255.96875 278.027344 C 255.710938 277.769531 255.484375 277.488281 255.28125 277.1875 C 255.078125 276.882812 254.90625 276.566406 254.769531 276.226562 C 254.628906 275.890625 254.523438 275.546875 254.453125 275.1875 C 254.382812 274.832031 254.34375 274.46875 254.34375 274.105469 C 254.34375 273.742188 254.382812 273.382812 254.453125 273.023438 C 254.523438 272.667969 254.628906 272.320312 254.769531 271.984375 C 254.90625 271.648438 255.078125 271.328125 255.28125 271.023438 C 255.484375 270.722656 255.710938 270.441406 255.96875 270.183594 C 256.226562 269.925781 256.507812 269.695312 256.8125 269.496094 C 257.113281 269.292969 257.433594 269.121094 257.769531 268.980469 C 258.105469 268.84375 258.453125 268.738281 258.808594 268.667969 C 259.167969 268.597656 259.527344 268.558594 259.894531 268.558594 C 260.257812 268.558594 260.617188 268.597656 260.976562 268.667969 C 261.332031 268.738281 261.679688 268.84375 262.015625 268.980469 C 262.351562 269.121094 262.671875 269.292969 262.976562 269.496094 C 263.277344 269.695312 263.558594 269.925781 263.816406 270.183594 C 264.074219 270.441406 264.304688 270.722656 264.503906 271.023438 C 264.707031 271.328125 264.878906 271.648438 265.019531 271.984375 C 265.15625 272.320312 265.261719 272.667969 265.332031 273.023438 C 265.40625 273.382812 265.441406 273.742188 265.441406 274.105469 Z M 265.441406 274.105469 " fill-opacity="1" fill-rule="nonzero"/></svg>