<svg xmlns="http://www.w3.org/2000/svg" xmlns:xlink="http://www.w3.org/1999/xlink" width="500" zoomAndPan="magnify" viewBox="0 0 375 374.999991" height="500" preserveAspectRatio="xMidYMid meet" version="1.0"><defs><clipPath id="id1"><path d="M 57.90625 56 L 317.40625 56 L 317.40625 320 L 57.90625 320 Z M 57.90625 56 " clip-rule="nonzero"/></clipPath></defs><g clip-path="url(#id1)"><path fill="#ffffff" d="M 187.558594 309.464844 C 121.480469 309.464844 67.714844 260.597656 67.714844 200.542969 C 67.714844 170.152344 81.824219 140.976562 106.441406 120.375 C 117.066406 117.550781 128.488281 115.285156 140.050781 113.671875 C 140.75 113.765625 141.382812 113.90625 142.035156 114.070312 C 139.234375 116.078125 135.894531 118.8125 132.460938 122.40625 C 132.367188 122.5 132.320312 122.59375 132.226562 122.640625 C 131.152344 123.761719 130.054688 124.90625 128.980469 126.167969 C 128.605469 126.613281 128.207031 127.148438 127.8125 127.640625 C 127.019531 128.574219 126.246094 129.507812 125.5 130.535156 C 124.777344 131.519531 124.074219 132.59375 123.351562 133.667969 C 122.90625 134.320312 122.511719 134.859375 122.066406 135.488281 C 120.992188 137.195312 119.917969 138.96875 118.9375 140.886719 C 118.890625 140.929688 118.890625 140.976562 118.84375 141.070312 C 117.816406 143.035156 116.789062 145.089844 115.804688 147.308594 C 114.664062 149.855469 114.917969 152.65625 116.390625 154.945312 C 118.9375 158.871094 124.867188 159.851562 128.535156 156.816406 C 142.714844 145.136719 155.699219 138.828125 165.414062 139.507812 C 165.253906 153.289062 166 183.234375 174.175781 195.988281 C 175.691406 198.324219 178.308594 199.773438 181.089844 199.773438 C 183.679688 199.773438 186.203125 198.488281 187.722656 196.386719 C 192.183594 190.242188 201.640625 174.753906 203.882812 150.976562 C 204.234375 147.589844 204.375 144.015625 204.375 140.300781 C 211.542969 140.769531 226.097656 143.175781 237.65625 154.457031 C 240.949219 157.632812 246.53125 157.351562 249.523438 154.011719 C 251.085938 152.261719 251.789062 149.902344 251.484375 147.542969 C 250.597656 140.746094 247.816406 132.007812 240.25 123.667969 C 240.0625 123.4375 239.875 123.179688 239.667969 122.945312 C 239.386719 122.59375 238.941406 122.292969 238.589844 121.964844 C 236.09375 119.464844 233.242188 117.011719 229.761719 114.699219 C 234.222656 113.90625 240.8125 113.273438 250.011719 113.273438 C 250.457031 113.273438 250.902344 113.273438 251.296875 113.273438 C 251.882812 113.273438 252.464844 113.273438 253.097656 113.273438 L 254.871094 113.4375 C 256.34375 113.625 257.765625 113.8125 259.238281 113.953125 L 260.453125 114.117188 C 290.210938 134.953125 307.261719 166.371094 307.261719 200.449219 C 307.375 260.597656 253.632812 309.464844 187.558594 309.464844 Z M 149.71875 98.324219 C 156.492188 98.324219 161.980469 99.164062 165.414062 99.890625 C 170.367188 100.871094 175.203125 96.945312 175.203125 91.855469 L 175.203125 69.78125 C 175.273438 67.585938 176.535156 65.925781 177.609375 65.925781 L 188.492188 65.925781 C 189.566406 65.925781 190.851562 67.585938 190.851562 69.78125 L 190.851562 90.640625 C 190.851562 92.882812 191.738281 94.9375 193.351562 96.503906 C 195.757812 98.816406 199.375 99.445312 202.460938 98.089844 C 207.855469 95.636719 213.742188 94.355469 219.90625 94.355469 C 231.773438 94.355469 243.007812 98.863281 251.484375 103.582031 C 251.25 103.582031 250.992188 103.582031 250.691406 103.582031 C 250.503906 103.582031 250.316406 103.582031 250.105469 103.582031 C 249.523438 103.582031 248.984375 103.628906 248.449219 103.628906 C 238.335938 103.675781 230.066406 104.515625 223.644531 106.078125 C 220.398438 106.851562 218.015625 109.492188 217.523438 112.785156 C 217.035156 116.125 218.597656 119.417969 221.542969 121.171875 C 233.78125 128.386719 238.941406 137.101562 240.949219 144.320312 C 226.632812 132.59375 209.957031 130.722656 202.855469 130.535156 C 200.660156 130.535156 198.605469 131.425781 197.015625 132.988281 C 195.453125 134.554688 194.613281 136.65625 194.679688 138.921875 C 195.054688 164.105469 186.34375 180.992188 181.296875 188.628906 C 176.441406 178.375 174.96875 156.371094 175.273438 138.269531 C 175.320312 134.109375 172.210938 130.535156 168.007812 130 C 166.722656 129.859375 165.460938 129.742188 164.179688 129.742188 C 163.945312 129.742188 163.6875 129.8125 163.453125 129.8125 C 162.800781 129.8125 162.167969 129.90625 161.492188 129.953125 C 160.417969 130.046875 159.367188 130.140625 158.292969 130.328125 C 157.707031 130.445312 157.125 130.582031 156.539062 130.675781 C 155.347656 130.933594 154.226562 131.214844 153.058594 131.566406 C 152.570312 131.703125 152.03125 131.867188 151.542969 132.054688 C 150.304688 132.453125 149.089844 132.894531 147.851562 133.386719 C 147.40625 133.574219 146.988281 133.714844 146.496094 133.925781 C 145.210938 134.460938 143.996094 135.046875 142.761719 135.675781 C 142.363281 135.886719 141.917969 136.074219 141.523438 136.328125 C 140.308594 136.960938 139.09375 137.636719 137.902344 138.339844 C 137.503906 138.574219 137.132812 138.78125 136.6875 139.015625 C 135.496094 139.695312 134.375 140.441406 133.253906 141.164062 C 132.855469 141.421875 132.414062 141.726562 132.015625 141.960938 C 130.847656 142.730469 129.726562 143.570312 128.605469 144.367188 C 128.347656 144.550781 128.046875 144.761719 127.765625 144.949219 C 130.542969 139.902344 133.582031 135.675781 136.640625 132.195312 C 140.449219 127.828125 144.183594 124.605469 147.269531 122.339844 C 147.453125 122.199219 147.710938 122.011719 147.851562 121.917969 C 148.109375 121.707031 148.296875 121.613281 148.550781 121.472656 C 149.089844 121.078125 149.625 120.679688 150.117188 120.375 C 152.664062 118.71875 154.089844 115.773438 153.785156 112.691406 C 153.503906 109.605469 151.496094 107.015625 148.644531 105.871094 C 148.390625 105.777344 148.109375 105.730469 147.851562 105.636719 C 146.730469 105.238281 145.5625 104.890625 144.277344 104.5625 C 143.601562 104.398438 142.898438 104.210938 142.222656 104.117188 C 142.082031 104.070312 141.917969 104.070312 141.777344 104.023438 C 141.6875 104.023438 141.59375 104.023438 141.476562 104.023438 C 135.847656 103.019531 129.238281 102.925781 121.621094 103.722656 C 130.265625 100.148438 139.675781 98.324219 149.71875 98.324219 Z M 265.847656 105.988281 C 265.753906 105.917969 265.636719 105.871094 265.546875 105.824219 C 265.753906 102.878906 264.46875 100.03125 261.878906 98.371094 C 252.023438 92.042969 236.722656 84.496094 219.90625 84.496094 C 213.203125 84.496094 206.734375 85.734375 200.660156 88.117188 L 200.660156 69.78125 C 200.660156 62.234375 195.21875 56.117188 188.492188 56.117188 L 177.609375 56.117188 C 170.90625 56.117188 165.460938 62.234375 165.460938 69.78125 L 165.460938 89.9375 C 161.585938 89.261719 156.144531 88.5625 149.71875 88.5625 C 134.375 88.5625 120.359375 92.296875 107.957031 99.703125 C 104.757812 101.617188 103.242188 105.285156 104.292969 108.90625 C 104.480469 109.5625 104.710938 110.144531 105.015625 110.683594 C 104.570312 110.773438 104.082031 110.914062 103.589844 111.03125 C 102.421875 111.3125 101.324219 111.894531 100.367188 112.691406 C 73.390625 135.136719 57.90625 167.210938 57.90625 200.542969 C 57.90625 265.996094 116.039062 319.230469 187.558594 319.230469 C 259.074219 319.230469 317.210938 265.996094 317.210938 200.542969 C 317.164062 163.144531 298.5 128.621094 265.847656 105.988281 " fill-opacity="1" fill-rule="nonzero"/></g><path fill="#ffffff" d="M 87.617188 206.664062 C 87.21875 203.976562 84.765625 202.109375 82.078125 202.550781 C 79.371094 202.949219 77.523438 205.402344 77.898438 208.089844 C 78.972656 215.398438 81.378906 222.222656 85.070312 228.433594 C 86.003906 230 87.617188 230.839844 89.273438 230.839844 C 90.113281 230.839844 91.003906 230.628906 91.773438 230.140625 C 94.132812 228.785156 94.855469 225.746094 93.5 223.433594 C 90.511719 218.390625 88.503906 212.597656 87.617188 206.664062 " fill-opacity="1" fill-rule="nonzero"/><path fill="#ffffff" d="M 83.015625 191.832031 C 83.109375 191.832031 83.246094 191.832031 83.339844 191.832031 C 85.886719 191.832031 88.058594 189.84375 88.246094 187.253906 C 88.644531 181.667969 89.765625 176.273438 91.632812 171.132812 C 92.566406 168.566406 91.234375 165.785156 88.691406 164.851562 C 86.144531 163.917969 83.339844 165.25 82.40625 167.792969 C 80.257812 173.773438 78.878906 180.105469 78.4375 186.574219 C 78.296875 189.261719 80.304688 191.621094 83.015625 191.832031 " fill-opacity="1" fill-rule="nonzero"/></svg>