<?xml version="1.0" encoding="UTF-8"?><svg xmlns="http://www.w3.org/2000/svg" xmlns:xlink="http://www.w3.org/1999/xlink" width="375" zoomAndPan="magnify" viewBox="0 0 375 374.999991" height="374.999991" preserveAspectRatio="xMidYMid meet" version="1.0"><defs><clipPath id="clip-0"><path d="M 147 120.28125 L 226 120.28125 L 226 148 L 147 148 Z M 147 120.28125 " clip-rule="nonzero"/></clipPath><clipPath id="clip-1"><path d="M 115 147 L 258 147 L 258 254.53125 L 115 254.53125 Z M 115 147 " clip-rule="nonzero"/></clipPath></defs><g clip-path="url(#clip-0)"><path fill="rgb(0%, 0%, 0%)" d="M 165.3125 143.476562 C 167.863281 142.371094 170.636719 141.152344 172.632812 141.152344 C 174.742188 141.261719 176.738281 141.925781 178.292969 143.253906 C 178.734375 143.589844 179.066406 143.921875 179.511719 144.363281 C 180.511719 145.359375 181.621094 146.46875 183.0625 147.023438 C 184.171875 147.464844 185.28125 147.6875 186.5 147.6875 C 187.832031 147.6875 189.164062 147.355469 190.273438 146.691406 C 191.492188 146.027344 192.492188 145.140625 193.378906 144.253906 C 193.824219 143.921875 194.15625 143.476562 194.601562 143.144531 C 196.152344 141.816406 198.152344 141.152344 200.257812 141.039062 C 202.257812 140.929688 204.917969 142.148438 207.582031 143.367188 C 213.019531 145.804688 220.339844 149.015625 225 141.152344 C 225.664062 140.042969 225.222656 138.714844 224.222656 138.160156 C 223.226562 137.496094 221.78125 137.9375 221.226562 138.933594 C 218.898438 142.921875 215.792969 142.148438 209.46875 139.265625 C 206.359375 137.9375 203.253906 136.496094 200.257812 136.609375 C 197.152344 136.71875 194.269531 137.828125 191.9375 139.710938 C 191.492188 140.152344 190.9375 140.597656 190.496094 140.929688 C 189.941406 141.484375 189.386719 142.035156 188.832031 142.371094 C 188.71875 138.160156 189.609375 129.628906 198.707031 125.195312 C 199.816406 124.640625 200.257812 123.3125 199.703125 122.207031 C 199.148438 121.097656 197.816406 120.652344 196.707031 121.207031 C 185.390625 126.859375 184.171875 137.382812 184.28125 142.703125 C 183.726562 142.371094 183.171875 141.816406 182.617188 141.261719 C 182.175781 140.816406 181.621094 140.375 181.175781 139.933594 C 178.847656 138.046875 175.960938 136.941406 172.855469 136.828125 C 169.859375 136.71875 166.640625 138.160156 163.644531 139.488281 C 157.324219 142.371094 154.214844 143.144531 151.886719 139.15625 C 151.21875 138.046875 149.890625 137.714844 148.890625 138.378906 C 147.78125 139.046875 147.449219 140.375 148.113281 141.371094 C 152.550781 149.128906 159.984375 145.804688 165.3125 143.476562 Z M 165.3125 143.476562 " fill-opacity="1" fill-rule="nonzero"/></g><g clip-path="url(#clip-1)"><path fill="rgb(0%, 0%, 0%)" d="M 245.304688 161.425781 C 234.542969 149.570312 218.230469 145.140625 200.480469 149.347656 C 199.371094 149.570312 198.707031 150.679688 198.816406 151.785156 C 198.925781 152.894531 199.925781 153.78125 201.035156 153.78125 C 201.035156 153.78125 218.675781 153.78125 223.558594 171.617188 C 218.121094 165.96875 208.46875 159.097656 192.824219 158.324219 C 192.046875 158.324219 191.382812 158.65625 190.9375 159.210938 C 190.496094 159.761719 190.382812 160.539062 190.605469 161.203125 C 190.605469 161.316406 194.488281 173.390625 188.5 184.800781 C 187.722656 178.597656 185.835938 168.847656 181.066406 160.207031 C 180.730469 159.542969 179.957031 159.097656 179.179688 159.097656 C 178.402344 159.097656 162.316406 159.097656 151.773438 172.617188 C 152.996094 166.300781 157.433594 157.769531 171.191406 153.78125 C 172.1875 153.449219 172.855469 152.5625 172.742188 151.566406 C 172.742188 150.566406 171.96875 149.679688 170.96875 149.460938 C 170.523438 149.347656 126.703125 140.042969 117.046875 178.15625 C 112.5 195.992188 118.160156 217.265625 131.027344 230.890625 C 145.117188 245.738281 165.53125 254.160156 187.167969 254.160156 C 187.722656 254.160156 188.277344 254.160156 188.832031 254.160156 C 210.023438 253.714844 229.660156 244.960938 242.640625 230.117188 C 261.390625 208.621094 262.5 180.371094 245.304688 161.425781 Z M 239.3125 227.234375 C 227.21875 241.195312 208.800781 249.394531 188.832031 249.726562 C 167.75 250.167969 147.890625 242.191406 134.246094 227.789062 C 122.375 215.269531 117.160156 195.660156 121.375 179.042969 C 127.144531 156.328125 146.117188 152.453125 158.652344 152.453125 C 159.761719 152.453125 160.871094 152.453125 161.871094 152.5625 C 143.898438 162.3125 147.117188 180.8125 147.117188 181.035156 C 147.335938 182.03125 148.113281 182.699219 149 182.808594 C 150 182.917969 150.886719 182.363281 151.332031 181.589844 C 158.652344 165.96875 173.410156 163.753906 177.847656 163.417969 C 184.28125 176.050781 184.617188 191.007812 184.617188 191.230469 C 184.617188 192.113281 185.171875 193 186.058594 193.332031 C 186.945312 193.664062 187.945312 193.445312 188.5 192.667969 C 197.816406 181.699219 196.820312 168.738281 195.597656 162.976562 C 216.902344 165.191406 224.777344 180.261719 225.109375 180.925781 C 225.554688 181.8125 226.664062 182.363281 227.664062 182.03125 C 228.660156 181.8125 229.328125 180.8125 229.328125 179.816406 C 228.550781 163.308594 220.453125 155.664062 213.128906 152.230469 C 213.238281 152.230469 213.238281 152.230469 213.351562 152.230469 C 224.667969 152.230469 234.761719 156.441406 242.085938 164.417969 C 260.28125 184.46875 253.402344 211.058594 239.3125 227.234375 Z M 239.3125 227.234375 " fill-opacity="1" fill-rule="nonzero"/></g><path fill="rgb(0%, 0%, 0%)" d="M 189.164062 150.898438 C 188.5 151.785156 187.5 152.230469 186.5 152.230469 C 185.503906 152.230469 184.503906 151.785156 183.839844 150.898438 C 183.0625 149.902344 181.730469 149.792969 180.730469 150.457031 C 179.734375 151.234375 179.621094 152.5625 180.289062 153.558594 C 181.730469 155.554688 184.0625 156.660156 186.5 156.660156 C 188.941406 156.660156 191.160156 155.554688 192.714844 153.558594 C 193.492188 152.5625 193.269531 151.234375 192.269531 150.457031 C 191.273438 149.679688 189.828125 149.902344 189.164062 150.898438 Z M 189.164062 150.898438 " fill-opacity="1" fill-rule="nonzero"/><path fill="rgb(0%, 0%, 0%)" d="M 234.097656 192.113281 C 232.878906 192.113281 231.878906 193.113281 231.878906 194.332031 C 231.878906 194.441406 231.878906 205.742188 221.5625 214.828125 C 220.671875 215.601562 220.5625 217.042969 221.339844 217.929688 C 222.117188 218.816406 223.558594 218.925781 224.445312 218.152344 C 236.316406 207.738281 236.316406 194.882812 236.316406 194.332031 C 236.316406 193.113281 235.429688 192.113281 234.097656 192.113281 Z M 234.097656 192.113281 " fill-opacity="1" fill-rule="nonzero"/><path fill="rgb(0%, 0%, 0%)" d="M 218.675781 222.027344 C 218.675781 222.324219 218.621094 222.605469 218.507812 222.875 C 218.394531 223.148438 218.234375 223.386719 218.027344 223.59375 C 217.816406 223.804688 217.578125 223.964844 217.304688 224.074219 C 217.035156 224.1875 216.75 224.246094 216.457031 224.246094 C 216.164062 224.246094 215.878906 224.1875 215.609375 224.074219 C 215.335938 223.964844 215.097656 223.804688 214.886719 223.59375 C 214.679688 223.386719 214.519531 223.148438 214.40625 222.875 C 214.292969 222.605469 214.238281 222.324219 214.238281 222.027344 C 214.238281 221.734375 214.292969 221.453125 214.40625 221.179688 C 214.519531 220.910156 214.679688 220.667969 214.886719 220.460938 C 215.097656 220.253906 215.335938 220.09375 215.609375 219.980469 C 215.878906 219.867188 216.164062 219.8125 216.457031 219.8125 C 216.75 219.8125 217.035156 219.867188 217.304688 219.980469 C 217.578125 220.09375 217.816406 220.253906 218.027344 220.460938 C 218.234375 220.667969 218.394531 220.910156 218.507812 221.179688 C 218.621094 221.453125 218.675781 221.734375 218.675781 222.027344 Z M 218.675781 222.027344 " fill-opacity="1" fill-rule="nonzero"/></svg>